<?xml version="1.0" standalone="no"?>
<!DOCTYPE svg PUBLIC "-//W3C//DTD SVG 20010904//EN"
 "http://www.w3.org/TR/2001/REC-SVG-20010904/DTD/svg10.dtd">
<svg version="1.0" xmlns="http://www.w3.org/2000/svg"
 width="774.000000pt" height="338.000000pt" viewBox="0 0 774.000000 338.000000"
 preserveAspectRatio="xMidYMid meet">

<g transform="translate(0.000000,338.000000) scale(0.100000,-0.100000)"
fill="#000000" stroke="none">
<path d="M2680 2678 c-7 -19 -121 -927 -120 -966 0 -11 37 -13 198 -10 174 4
202 7 244 25 82 38 156 118 179 195 11 38 69 486 69 538 0 65 -21 113 -69 161
-67 68 -114 79 -323 79 -165 0 -169 0 -178 -22z m281 -218 c25 -14 25 -47 -5
-290 -23 -184 -25 -196 -51 -217 -25 -22 -55 -31 -55 -15 0 4 14 125 31 270
34 275 34 276 80 252z"/>
<path d="M3350 2678 c-7 -19 -121 -926 -120 -965 0 -10 32 -13 125 -13 105 0
127 3 132 16 3 8 16 93 28 187 13 104 24 162 28 147 3 -14 13 -88 22 -165 9
-77 18 -150 21 -162 4 -22 8 -23 134 -23 123 0 130 1 130 20 0 11 -14 109 -30
218 l-31 197 24 20 c94 80 139 238 106 371 -7 28 -28 63 -55 93 -65 73 -99 81
-321 81 -181 0 -184 0 -193 -22z m302 -239 c38 -51 -7 -149 -68 -149 -24 0
-26 3 -21 33 3 17 9 58 13 90 6 55 8 58 32 55 14 -2 34 -15 44 -29z"/>
<path d="M4015 1946 c-41 -18 -83 -69 -91 -111 -16 -85 33 -145 117 -145 44 0
55 5 90 38 48 44 64 97 46 150 -22 64 -100 97 -162 68z"/>
<path d="M2085 1557 c-62 -21 -97 -42 -136 -84 -59 -61 -82 -117 -87 -209 -7
-132 21 -179 201 -338 69 -60 78 -72 75 -99 -3 -33 -27 -53 -52 -44 -11 5 -16
19 -16 52 l0 46 -127 -3 -128 -3 -7 -50 c-14 -102 27 -194 109 -242 44 -26 56
-28 153 -28 90 0 112 4 153 24 68 33 133 103 158 170 27 71 29 172 5 221 -10
19 -73 89 -142 155 -113 109 -124 123 -124 156 0 39 14 59 42 59 22 0 31 -19
32 -69 l1 -36 116 -3 c95 -2 118 0 129 13 16 20 17 139 0 180 -15 40 -66 92
-115 118 -50 26 -181 33 -240 14z"/>
<path d="M3403 1556 c-91 -29 -157 -89 -197 -177 -20 -44 -32 -104 -57 -295
-36 -278 -35 -350 4 -417 32 -55 104 -104 164 -113 69 -10 173 1 225 24 69 30
131 93 162 162 23 50 32 102 57 298 16 130 29 258 29 283 0 95 -50 177 -135
222 -51 26 -189 34 -252 13z m118 -238 c7 -17 2 -88 -20 -261 -31 -247 -39
-277 -81 -277 -41 0 -43 19 -15 247 32 269 34 281 52 298 21 22 52 18 64 -7z"/>
<path d="M4685 1557 c-62 -21 -97 -42 -136 -84 -59 -61 -82 -117 -87 -209 -7
-132 21 -179 201 -338 69 -60 78 -72 75 -99 -3 -33 -27 -53 -52 -44 -11 5 -16
19 -16 52 l0 46 -127 -3 -128 -3 -7 -50 c-14 -102 27 -194 109 -242 44 -26 56
-28 153 -28 90 0 112 4 153 24 68 33 133 103 158 170 27 71 29 172 5 221 -10
19 -73 89 -142 155 -113 109 -124 123 -124 156 0 39 14 59 42 59 22 0 31 -19
32 -69 l1 -36 116 -3 c95 -2 118 0 129 13 16 20 17 139 0 180 -15 40 -66 92
-115 118 -50 26 -181 33 -240 14z"/>
<path d="M2545 1548 c-8 -22 -123 -973 -118 -980 2 -5 60 -8 128 -8 146 0 127
-22 150 175 25 219 21 205 64 205 l37 0 -9 -82 c-4 -45 -14 -127 -21 -182 -8
-56 -12 -104 -9 -108 2 -5 60 -8 129 -8 91 0 126 3 129 13 6 18 115 928 115
960 l0 28 -127 -3 -128 -3 -11 -85 c-6 -47 -17 -131 -24 -187 l-12 -103 -40 0
-39 0 5 43 c21 152 36 285 36 309 l0 28 -125 0 c-91 0 -127 -3 -130 -12z"/>
<path d="M3885 1538 c-8 -33 -115 -921 -115 -952 l0 -26 270 0 270 0 10 25 c5
13 12 65 16 115 l7 90 -142 0 c-161 0 -147 -10 -135 98 l7 52 71 0 c39 0 77 4
84 9 15 9 39 188 29 214 -5 14 -21 17 -82 17 -68 0 -76 2 -71 18 2 9 7 43 11
75 l6 57 145 0 c165 0 146 -15 164 128 6 45 8 87 5 92 -4 6 -109 10 -275 10
l-270 0 -5 -22z"/>
</g>
</svg>
